<svg width="48" height="51" fill="none" xmlns="http://www.w3.org/2000/svg"><circle cx="20.5" cy="20.5" r="20.5" fill="#B8BA21" fill-opacity=".5"/><circle cx="20.5" cy="20.5" r="20" stroke="#B8BA21" stroke-opacity=".6"/><path d="M15.965 30v-2.568h-1.92v-2.328h1.92v-1.872h-1.92v-2.976h1.92v-7.392h5.472c2.208 0 3.816.448 4.824 1.344 1.024.896 1.536 2.128 1.536 3.696 0 .928-.208 1.8-.624 2.616-.416.816-1.112 1.472-2.088 1.968-.96.496-2.272.744-3.936.744h-1.56v1.872h3.696v2.328h-3.696V30h-3.624zm4.824-9.744c1.024 0 1.832-.176 2.424-.528.608-.352.912-.92.912-1.704 0-1.456-.96-2.184-2.88-2.184h-1.656v4.416h1.2z" fill="#fff"/><path d="M15.965 30h-1v1h1v-1zm0-2.568h1v-1h-1v1zm-1.92 0h-1v1h1v-1zm0-2.328v-1h-1v1h1zm1.92 0v1h1v-1h-1zm0-1.872h1v-1h-1v1zm-1.92 0h-1v1h1v-1zm0-2.976v-1h-1v1h1zm1.92 0v1h1v-1h-1zm0-7.392v-1h-1v1h1zm10.296 1.344l-.665.747.006.006.659-.753zm.912 6.312l.89.454-.89-.454zm-2.088 1.968l-.453-.892-.006.004.459.888zm-5.496.744v-1h-1v1h1zm0 1.872h-1v1h1v-1zm3.696 0h1v-1h-1v1zm0 2.328v1h1v-1h-1zm-3.696 0v-1h-1v1h1zm0 2.568v1h1v-1h-1zm3.624-10.272l-.501-.866-.01.007.51.859zm-3.624-3.888v-1h-1v1h1zm0 4.416h-1v1h1v-1zM16.965 30v-2.568h-2V30h2zm-1-3.568h-1.92v2h1.92v-2zm-.92 1v-2.328h-2v2.328h2zm-1-1.328h1.92v-2h-1.92v2zm2.92-1v-1.872h-2v1.872h2zm-1-2.872h-1.92v2h1.92v-2zm-.92 1v-2.976h-2v2.976h2zm-1-1.976h1.92v-2h-1.92v2zm2.92-1v-7.392h-2v7.392h2zm-1-6.392h5.472v-2h-5.472v2zm5.472 0c2.109 0 3.42.434 4.16 1.091l1.328-1.494c-1.277-1.135-3.182-1.597-5.488-1.597v2zm4.165 1.097c.773.676 1.195 1.615 1.195 2.943h2c0-1.808-.603-3.333-1.878-4.449l-1.317 1.506zm1.195 2.943a4.68 4.68 0 01-.515 2.162l1.782.908a6.68 6.68 0 00.733-3.07h-2zm-.515 2.162c-.303.593-.825 1.111-1.65 1.53l.906 1.784c1.127-.573 1.996-1.367 2.526-2.406l-1.782-.908zM24.626 21.6c-.762.393-1.895.632-3.477.632v2c1.745 0 3.237-.257 4.395-.856l-.918-1.776zm-3.477.632h-1.56v2h1.56v-2zm-2.56 1v1.872h2v-1.872h-2zm1 2.872h3.696v-2h-3.696v2zm2.696-1v2.328h2v-2.328h-2zm1 1.328h-3.696v2h3.696v-2zm-4.696 1V30h2v-2.568h-2zm1 1.568h-3.624v2h3.624v-2zm1.2-7.744c1.122 0 2.13-.19 2.935-.669l-1.022-1.718c-.38.225-.988.387-1.913.387v2zm2.925-.663c.957-.554 1.41-1.478 1.41-2.569h-2c0 .477-.154.689-.412.839l1.002 1.73zm1.41-2.569c0-.968-.333-1.842-1.115-2.435-.73-.553-1.706-.749-2.764-.749v2c.862 0 1.325.168 1.555.343.178.135.325.353.325.841h2zm-3.88-3.184H19.59v2h1.656v-2zm-2.655 1v4.416h2V15.84h-2zm1 5.416h1.2v-2h-1.2v2z" fill="#B8BA21" fill-opacity=".6"/><path opacity=".6" d="M21 34.5C21 41.404 26.596 47 33.5 47c2.706 0 5.212-.86 7.258-2.322L45.563 51 48 49l-5-6.376a12.45 12.45 0 003-8.124C46 27.596 40.404 22 33.5 22S21 27.596 21 34.5z" fill="#70D92A"/><circle opacity=".5" cx="33.5" cy="34.5" r="9.5" fill="#fff"/></svg>